<?xml version="1.0" standalone="no"?>
<!DOCTYPE svg PUBLIC "-//W3C//DTD SVG 20010904//EN"
 "http://www.w3.org/TR/2001/REC-SVG-20010904/DTD/svg10.dtd">
<svg version="1.0" xmlns="http://www.w3.org/2000/svg"
 width="1024.000000pt" height="1024.000000pt" viewBox="0 0 1024.000000 1024.000000"
 preserveAspectRatio="xMidYMid meet">

<g transform="translate(0.000000,1024.000000) scale(0.100000,-0.100000)"
fill="#000000" stroke="none">
<path d="M0 5120 l0 -5120 5120 0 5120 0 0 5120 0 5120 -5120 0 -5120 0 0
-5120z m7541 3001 c26 -27 29 -36 29 -98 0 -37 -6 -108 -14 -158 -13 -80 -29
-222 -28 -242 1 -5 15 -11 31 -14 66 -14 61 80 61 -1148 0 -855 -3 -1120 -12
-1129 -15 -15 -148 -16 -148 -2 0 6 -8 10 -18 10 -10 0 -28 8 -41 17 -18 12
-22 13 -16 2 6 -10 5 -11 -3 -4 -8 7 -12 330 -15 1124 -4 1179 -5 1141 40
1141 11 0 14 6 9 25 -12 49 -25 171 -32 312 l-7 141 26 26 c38 38 98 36 138
-3z m-1096 -386 c51 -25 104 -80 140 -146 39 -73 46 -180 16 -259 -33 -88 -73
-135 -147 -171 -85 -42 -144 -47 -232 -20 -99 30 -160 86 -202 188 -42 100
-39 172 10 257 56 99 101 138 190 167 45 15 182 5 225 -16z m-591 -270 c3 -13
9 -51 12 -83 l7 -59 -64 -12 c-62 -10 -311 -41 -336 -41 -7 0 -17 -19 -24 -42
-6 -24 -22 -70 -35 -103 -13 -33 -53 -143 -89 -244 -36 -101 -70 -193 -76
-203 -8 -15 -22 -18 -94 -18 -47 0 -85 3 -85 8 0 27 61 245 78 277 11 22 30
76 42 119 12 44 31 98 41 120 10 23 32 77 49 121 38 103 63 143 96 156 28 10
234 25 385 28 85 1 87 0 93 -24z m1292 -151 c3 -37 4 -107 1 -157 -4 -78 -8
-93 -27 -109 -28 -22 -53 -23 -71 -1 -15 18 -19 233 -6 286 8 28 34 45 74 46
19 1 22 -6 29 -65z m-344 -129 c4 -16 5 -153 1 -303 -5 -235 -8 -272 -21 -267
-24 9 -143 25 -189 25 l-43 0 0 158 0 158 43 30 c43 31 120 130 154 197 21 43
43 44 55 2z m-904 -124 c74 -38 74 -37 72 -252 0 -107 -4 -197 -9 -202 -4 -4
-25 0 -47 9 -56 24 -134 44 -172 44 l-33 0 3 190 c2 117 7 193 14 200 10 10
77 26 117 29 10 1 34 -8 55 -18z m1292 -101 c10 -5 22 -20 26 -32 9 -25 6
-621 -2 -651 -4 -13 -12 -5 -30 32 -30 60 -129 155 -179 171 l-35 12 0 218 c0
151 4 227 12 246 l12 27 89 -7 c48 -3 97 -10 107 -16z m-903 -47 l93 -6 0
-131 c0 -72 -3 -140 -6 -152 -8 -30 -200 -96 -214 -74 -11 17 -14 363 -3 374
4 3 14 4 22 1 8 -3 57 -9 108 -12z m-962 -433 c283 -20 452 -53 710 -137 265
-86 544 -246 701 -399 142 -140 270 -390 346 -674 19 -71 23 -110 23 -245 0
-141 -3 -174 -28 -277 -43 -177 -117 -313 -246 -451 -52 -56 -227 -195 -316
-252 -82 -53 -232 -119 -340 -150 -49 -14 -98 -28 -107 -31 -47 -14 0 125 78
231 74 100 104 148 104 162 0 20 -41 7 -150 -48 -52 -26 -129 -57 -170 -69
-41 -12 -94 -28 -117 -36 -76 -25 -315 -63 -473 -75 -194 -15 -471 -6 -645 20
-279 43 -388 70 -562 140 -106 42 -156 52 -186 35 -16 -9 -8 -24 78 -142 84
-115 140 -210 131 -220 -8 -7 -157 33 -236 63 -223 86 -354 168 -497 312 -236
237 -334 496 -320 843 4 80 13 172 21 205 78 322 179 511 362 675 148 132 438
297 650 369 113 38 377 103 509 126 175 30 464 40 680 25z m-1535 -59 c25 -9
45 -23 45 -31 0 -8 -59 -46 -140 -90 -159 -85 -209 -119 -293 -193 -115 -101
-284 -323 -333 -437 -12 -27 -25 -50 -30 -50 -33 0 -37 301 -5 393 104 296
490 505 756 408z m2891 13 c210 -62 392 -227 458 -415 35 -98 55 -351 32 -388
-14 -22 -25 -8 -81 101 -125 242 -281 413 -463 504 -37 19 -92 50 -122 70 -31
19 -76 44 -100 54 -25 11 -45 22 -45 24 0 14 58 41 109 52 79 17 149 17 212
-2z m-3818 -1244 c-4 -171 -2 -271 6 -330 17 -121 146 -512 163 -495 11 11 17
-233 17 -647 1 -480 5 -452 -76 -464 -57 -8 -164 10 -179 31 -14 19 -17 1752
-3 1835 5 30 10 156 11 279 l1 223 34 -93 33 -94 -7 -245z m-313 -30 c12 -7
15 -47 18 -222 l4 -213 -48 -18 c-34 -12 -51 -14 -58 -7 -12 12 -22 395 -12
436 8 28 66 43 96 24z m4960 -10 c17 -11 28 -117 29 -292 1 -105 -1 -120 -19
-138 -27 -27 -76 -26 -90 0 -7 14 -10 90 -8 221 2 164 6 201 18 209 19 12 51
12 70 0z m-4908 -547 c18 -16 18 -45 13 -717 -3 -386 -1 -825 4 -976 12 -339
22 -316 -137 -312 -84 2 -110 6 -119 19 -10 13 -13 234 -13 990 l0 974 26 26
c25 25 28 26 117 19 63 -4 96 -11 109 -23z m690 -606 c18 -13 56 -36 85 -51
28 -14 54 -34 57 -43 8 -31 18 -340 11 -362 -3 -11 -12 -21 -18 -21 -7 0 -28
-5 -48 -10 l-37 -10 10 -46 c14 -64 6 -363 -10 -391 -10 -19 -21 -23 -57 -23
l-45 0 0 93 c1 117 23 315 39 345 11 20 9 23 -16 32 -57 20 -58 23 -57 101 2
282 6 464 12 477 4 11 11 4 23 -25 9 -22 32 -52 51 -66z m1118 -147 c0 -5 -9
-6 -20 -3 -11 3 -20 9 -20 13 0 5 9 6 20 3 11 -3 20 -9 20 -13z m1365 -12 c-2
-13 -8 -38 -13 -55 -9 -27 -8 -33 4 -33 24 0 23 -147 -2 -166 -28 -22 -137
-27 -183 -8 l-42 16 3 82 3 81 48 -3 c39 -3 47 0 47 14 0 10 -8 26 -17 36 -17
19 -16 19 7 14 18 -5 34 1 55 18 18 15 43 25 62 26 27 0 31 -3 28 -22z m-1380
-8 c3 -5 1 -10 -4 -10 -6 0 -11 5 -11 10 0 6 2 10 4 10 3 0 8 -4 11 -10z
m1195 -20 c8 -5 11 -10 5 -10 -5 0 -17 5 -25 10 -8 5 -10 10 -5 10 6 0 17 -5
25 -10z m-1869 -79 c78 -36 89 -48 96 -99 4 -33 2 -42 -18 -56 -13 -9 -39 -17
-59 -17 -20 -1 -26 -4 -14 -6 19 -4 21 -14 32 -201 7 -108 12 -232 12 -274 0
-68 -3 -79 -22 -92 -27 -19 -79 -21 -96 -4 -20 20 -9 488 14 561 4 12 0 17
-15 17 -11 0 -32 5 -47 12 -26 12 -27 13 -20 93 3 44 6 95 6 113 l0 33 33 -24
c17 -14 62 -38 98 -56z m1603 0 c50 -86 48 -68 53 -370 6 -347 14 -326 -114
-326 -50 1 -98 6 -110 13 l-23 13 0 304 c0 218 3 305 11 305 7 0 9 10 7 25 -7
36 15 49 91 55 74 6 70 7 85 -19z m-934 -8 c77 16 130 19 130 8 0 -6 -10 -11
-22 -11 -22 -1 -22 -1 -3 -12 11 -6 24 -17 28 -25 4 -7 14 -13 22 -13 23 0 26
-32 23 -260 l-3 -215 -40 -13 c-21 -7 -41 -14 -42 -16 -2 -2 1 -52 7 -112 11
-117 2 -210 -21 -225 -8 -5 -26 -9 -40 -9 -24 0 -27 5 -33 47 -8 61 4 296 16
304 5 3 -8 9 -30 13 -66 10 -65 6 -54 290 9 228 19 319 30 262 3 -14 10 -17
32 -13z m458 10 c-16 -2 -40 -2 -55 0 -16 2 -3 4 27 4 30 0 43 -2 28 -4z m10
-16 c86 -2 87 -2 101 -32 11 -22 15 -110 20 -395 4 -201 3 -373 -1 -382 -14
-29 -46 -39 -124 -40 -54 0 -82 5 -101 17 l-26 17 8 407 c4 223 9 409 12 414
2 4 9 5 14 1 5 -3 49 -6 97 -7z m-820 -76 c52 -26 100 -35 116 -22 11 9 14 -2
18 -60 7 -92 4 -102 -42 -128 -45 -25 -116 -28 -148 -5 -20 14 -22 23 -22 118
0 56 3 106 7 109 11 12 32 8 71 -12z m-1113 -487 c18 -14 20 -29 23 -195 4
-195 0 -209 -47 -209 -48 0 -51 12 -51 179 0 213 4 232 50 240 3 0 14 -6 25
-15z m2365 -228 c0 -1 9 -80 20 -176 27 -237 26 -275 -4 -305 -53 -53 -121
-39 -144 30 -11 32 -11 76 -3 223 6 101 13 188 17 193 10 17 77 46 96 41 10
-2 18 -5 18 -6z m-407 -198 c4 -24 9 -102 13 -174 7 -142 1 -168 -42 -184 -62
-24 -78 23 -72 221 5 164 11 179 63 179 31 0 33 -2 38 -42z m-2349 -288 c31
-11 34 -26 40 -239 l4 -164 -28 -29 c-34 -34 -62 -36 -91 -5 -20 21 -21 29
-16 217 2 107 7 203 12 213 8 19 40 22 79 7z"/>
<path d="M6274 7566 c-17 -8 -43 -29 -58 -48 -95 -126 95 -270 201 -154 25 27
33 45 33 72 0 44 -26 101 -54 119 -33 21 -88 26 -122 11z"/>
<path d="M4343 5585 c-120 -33 -224 -104 -285 -193 -91 -132 -110 -369 -42
-510 34 -69 129 -171 191 -204 84 -46 155 -61 263 -56 93 3 103 6 193 51 73
36 107 60 142 100 85 96 125 210 125 356 0 199 -117 372 -301 443 -71 27 -213
34 -286 13z m202 -221 c54 -25 112 -81 136 -131 78 -162 -48 -388 -219 -395
-93 -3 -209 69 -251 155 -41 84 -22 215 41 291 65 80 211 119 293 80z"/>
<path d="M5610 5581 c-126 -41 -229 -121 -278 -217 -53 -105 -69 -284 -37
-409 42 -160 204 -299 393 -335 134 -27 305 31 400 135 90 98 132 206 132 335
0 232 -137 425 -348 490 -80 25 -187 25 -262 1z m237 -222 c60 -29 120 -101
139 -167 48 -165 -77 -361 -231 -362 -82 0 -187 76 -232 168 -22 45 -25 62
-21 121 6 84 43 169 88 201 83 59 183 75 257 39z"/>
</g>
</svg>
