<?xml version="1.0" standalone="no"?>
<!DOCTYPE svg PUBLIC "-//W3C//DTD SVG 20010904//EN"
 "http://www.w3.org/TR/2001/REC-SVG-20010904/DTD/svg10.dtd">
<svg version="1.0" xmlns="http://www.w3.org/2000/svg"
 width="1024.000000pt" height="1024.000000pt" viewBox="0 0 1024.000000 1024.000000"
 preserveAspectRatio="xMidYMid meet">

<g transform="translate(0.000000,1024.000000) scale(0.100000,-0.100000)"
fill="#000000" stroke="none">
<path d="M0 5120 l0 -5120 5120 0 5120 0 0 5120 0 5120 -5120 0 -5120 0 0
-5120z m5360 2744 c78 -30 118 -51 560 -302 190 -107 449 -254 575 -325 127
-71 275 -156 330 -187 99 -58 130 -75 400 -220 160 -86 242 -158 289 -253 l29
-58 0 -1395 -1 -1394 -25 -39 c-15 -22 -46 -53 -69 -69 -37 -24 -328 -191
-618 -352 -47 -26 -182 -101 -300 -167 -118 -66 -305 -169 -415 -228 -110 -59
-225 -122 -255 -140 -92 -54 -357 -198 -500 -271 -101 -51 -145 -69 -175 -69
-42 1 -84 22 -445 228 -96 55 -245 139 -330 187 -85 48 -177 101 -205 117 -48
28 -251 142 -380 213 -83 45 -334 188 -485 275 -69 39 -163 94 -210 120 -133
77 -174 110 -203 163 l-27 50 -1 1389 c-1 1368 0 1389 19 1441 30 77 45 96
114 144 63 42 546 321 668 386 36 19 117 64 180 102 63 37 171 98 240 135 69
37 244 134 390 215 334 186 569 305 640 324 66 18 121 13 210 -20z"/>
<path d="M5190 7366 c-14 -13 -89 -55 -530 -291 -384 -206 -535 -289 -733
-406 -176 -105 -360 -210 -466 -269 l-99 -55 3 -310 c2 -170 4 -707 4 -1192 1
-708 4 -883 14 -883 7 0 48 -21 92 -46 44 -26 118 -67 165 -92 47 -25 119 -66
160 -92 41 -26 206 -120 367 -209 161 -89 371 -207 467 -264 346 -202 422
-245 501 -284 l80 -40 150 83 c83 46 179 101 215 122 36 21 83 48 105 59 46
24 280 153 375 208 36 21 119 68 186 104 130 71 236 130 512 286 98 55 211
116 250 135 l73 35 -2 1188 c-1 653 -6 1187 -10 1187 -7 0 -135 73 -344 195
-207 122 -330 193 -450 259 -71 40 -177 99 -235 133 -269 155 -456 259 -645
358 -60 32 -122 66 -137 77 -31 22 -49 23 -68 4z m118 -491 c16 -6 18 -820 1
-830 -6 -4 -36 -9 -68 -12 -55 -5 -58 -4 -64 18 -4 13 -7 207 -7 430 l0 405
63 -4 c34 -2 68 -5 75 -7z m-311 -132 c-4 -58 -7 -225 -7 -370 l0 -264 -67 3
-68 3 -3 356 -2 355 52 11 c29 5 64 11 77 11 l24 2 -6 -107z m566 86 c34 -11
65 -26 69 -32 4 -7 8 -164 8 -350 l0 -338 -72 3 -73 3 -3 368 c-2 202 0 367 3
367 3 0 34 -9 68 -21z m-889 -426 l8 -283 -67 0 c-44 0 -67 4 -70 13 -2 6 -5
126 -7 264 -4 248 -4 253 16 259 12 4 39 20 61 35 36 27 40 28 46 12 3 -10 9
-145 13 -300z m1217 265 l59 -33 0 -264 0 -264 -62 7 c-35 4 -64 9 -65 10 -2
2 -6 132 -10 289 -5 224 -4 287 6 287 7 0 39 -15 72 -32z m-1537 -200 c3 -29
7 -133 10 -230 l4 -178 -73 -59 -72 -59 -5 231 c-3 128 -1 242 3 254 7 20 101
91 121 92 4 1 9 -23 12 -51z m1877 -30 c12 -4 28 -217 28 -401 l1 -108 -32 23
c-18 12 -49 39 -69 59 l-36 36 -7 181 c-4 99 -5 205 -1 236 l7 55 49 -39 c27
-21 54 -40 60 -42z m374 -170 c74 -60 69 -28 75 -498 3 -234 4 -427 3 -429 -1
-2 -26 17 -56 42 -29 26 -79 62 -111 81 l-57 34 1 386 c0 212 3 392 6 401 4
10 20 15 53 15 37 0 54 -6 86 -32z m-2646 6 c55 -32 53 -15 52 -504 l-1 -245
-55 -29 c-31 -16 -87 -58 -126 -94 l-70 -65 8 199 c10 260 10 545 0 612 -9 50
-8 53 21 81 63 58 122 74 171 45z m1043 -393 c86 -37 128 -109 128 -216 l0
-65 -394 0 c-216 0 -407 -3 -424 -6 l-30 -6 5 43 c7 52 45 134 80 171 36 38
141 87 210 98 32 5 131 7 220 4 129 -3 171 -8 205 -23z m990 0 c64 -25 137
-90 167 -150 18 -36 46 -139 40 -145 -2 -2 -31 0 -64 5 -33 4 -228 8 -434 8
l-373 1 3 85 4 84 45 46 c25 26 58 53 74 62 44 23 145 32 321 29 136 -3 168
-7 217 -25z m253 -514 c33 -9 102 -38 153 -63 190 -93 320 -276 346 -488 8
-63 -2 -72 -26 -23 -25 49 -124 162 -184 207 -73 55 -158 96 -240 117 -63 15
-157 17 -1054 17 -1106 0 -1064 2 -1227 -74 -99 -46 -206 -147 -271 -255 -23
-38 -42 -65 -42 -59 0 20 40 206 56 263 36 124 173 251 345 320 150 60 144 60
1159 57 841 -1 930 -3 985 -19z m-22 -452 c127 -27 218 -81 313 -185 69 -77
88 -111 130 -236 l37 -109 1 -185 1 -185 -22 1 c-13 0 -23 -3 -23 -7 0 -5 -26
-21 -57 -37 -93 -47 -396 -218 -472 -267 -38 -25 -112 -65 -164 -89 -84 -39
-283 -151 -347 -196 -42 -29 -392 -210 -406 -210 -8 0 -14 5 -14 10 0 6 -5 10
-11 10 -16 0 -245 117 -309 158 -30 19 -111 65 -180 100 -112 58 -310 168
-505 281 -79 46 -90 52 -232 138 -57 35 -130 76 -163 93 l-60 30 0 131 c0 73
7 177 16 232 16 104 65 248 93 276 9 9 28 35 43 57 52 81 239 179 373 197 17
2 449 5 960 5 777 1 941 -1 998 -13z"/>
<path d="M6570 4087 c0 -2 19 -19 43 -37 23 -19 36 -26 28 -17 -15 19 -71 61
-71 54z"/>
</g>
</svg>
