<?xml version="1.0" standalone="no"?>
<!DOCTYPE svg PUBLIC "-//W3C//DTD SVG 20010904//EN"
 "http://www.w3.org/TR/2001/REC-SVG-20010904/DTD/svg10.dtd">
<svg version="1.0" xmlns="http://www.w3.org/2000/svg"
 width="1024.000000pt" height="1024.000000pt" viewBox="0 0 1024.000000 1024.000000"
 preserveAspectRatio="xMidYMid meet">

<g transform="translate(0.000000,1024.000000) scale(0.100000,-0.100000)"
fill="#000000" stroke="none">
<path d="M4818 7923 c6 -2 18 -2 25 0 6 3 1 5 -13 5 -14 0 -19 -2 -12 -5z"/>
<path d="M4768 7913 c7 -3 16 -2 19 1 4 3 -2 6 -13 5 -11 0 -14 -3 -6 -6z"/>
<path d="M4728 7903 c7 -3 16 -2 19 1 4 3 -2 6 -13 5 -11 0 -14 -3 -6 -6z"/>
<path d="M4678 7893 c6 -2 18 -2 25 0 6 3 1 5 -13 5 -14 0 -19 -2 -12 -5z"/>
<path d="M4628 7883 c6 -2 18 -2 25 0 6 3 1 5 -13 5 -14 0 -19 -2 -12 -5z"/>
<path d="M4578 7873 c7 -3 16 -2 19 1 4 3 -2 6 -13 5 -11 0 -14 -3 -6 -6z"/>
<path d="M4528 7863 c6 -2 18 -2 25 0 6 3 1 5 -13 5 -14 0 -19 -2 -12 -5z"/>
<path d="M5365 6854 l-171 -175 1 113 c0 129 -12 171 -58 194 -35 19 -87 12
-111 -15 -21 -23 -37 -120 -39 -236 -2 -85 0 -92 28 -131 45 -64 82 -84 162
-91 49 -4 77 -2 95 8 35 19 291 262 339 322 57 72 52 123 -18 169 -16 10 -35
18 -43 18 -8 -1 -92 -80 -185 -176z"/>
<path d="M4835 6761 c-81 -37 -118 -105 -118 -221 -1 -66 3 -84 34 -150 66
-139 173 -217 313 -227 115 -9 182 13 288 93 121 91 155 165 109 241 -36 58
-55 54 -135 -30 -75 -80 -105 -99 -180 -118 -63 -16 -123 2 -180 52 -76 67
-84 112 -60 327 7 60 -2 65 -71 33z"/>
<path d="M4077 6180 c-49 -9 -86 -37 -114 -86 l-22 -39 6 -425 c3 -266 1 -534
-6 -717 -11 -257 -10 -295 3 -321 36 -70 136 -121 202 -103 73 20 135 81 162
160 8 22 12 120 12 282 l0 249 678 0 c374 0 734 3 800 7 l122 6 0 -269 c0
-249 2 -272 21 -314 42 -92 108 -135 200 -128 64 5 108 31 156 95 26 34 28 42
27 127 -1 50 -4 378 -7 729 -6 726 1 667 -97 721 -44 24 -60 28 -111 24 -67
-5 -97 -23 -146 -86 -41 -54 -45 -92 -41 -378 l3 -231 -805 1 -805 1 6 255 c4
140 3 272 -1 293 -20 95 -138 166 -243 147z"/>
<path d="M3605 5931 c-46 -21 -79 -54 -94 -94 -12 -32 -13 -192 -2 -282 5 -33
7 -63 4 -67 -2 -4 -29 2 -60 13 -73 25 -126 24 -173 -2 -57 -32 -75 -70 -74
-160 1 -148 63 -196 227 -174 l57 7 0 -141 c0 -164 12 -200 82 -251 94 -69
242 -19 277 93 6 20 9 215 8 504 l-2 472 -35 36 c-19 20 -47 43 -62 51 -37 19
-105 17 -153 -5z"/>
<path d="M6508 5936 c-21 -7 -49 -21 -63 -30 -53 -35 -53 -32 -50 -556 2 -267
3 -488 4 -492 2 -16 66 -80 92 -94 36 -18 112 -18 147 0 31 17 74 60 93 96 9
16 15 75 17 172 l4 147 77 -6 c84 -6 116 4 160 50 54 59 47 207 -12 251 -61
45 -119 53 -215 29 l-24 -6 4 170 3 170 -28 36 c-49 65 -136 91 -209 63z"/>
<path d="M7407 5252 c-7 -14 40 -48 58 -42 15 5 12 10 -18 28 -20 11 -38 18
-40 14z"/>
<path d="M2460 5021 c0 -132 63 -422 136 -628 87 -245 267 -564 452 -802 108
-138 246 -269 422 -401 223 -167 274 -198 473 -295 361 -176 671 -250 1134
-271 210 -10 548 38 792 112 456 138 838 368 1168 702 237 240 421 526 558
866 44 111 128 420 140 518 3 27 -2 15 -14 -32 -42 -170 -178 -520 -243 -628
-21 -34 -38 -65 -38 -68 0 -5 -116 -189 -166 -264 -82 -122 -354 -420 -384
-420 -7 0 -11 -3 -7 -6 3 -3 -22 -29 -56 -58 -320 -269 -729 -475 -1122 -564
-270 -62 -314 -67 -590 -66 -213 1 -284 6 -395 23 -165 27 -332 69 -494 126
-132 47 -368 154 -361 164 2 4 -5 7 -15 8 -11 1 -45 19 -77 40 -32 22 -78 51
-103 65 -160 92 -393 303 -573 518 -97 115 -269 368 -340 501 -114 209 -229
533 -267 749 -21 123 -30 155 -30 111z"/>
<path d="M4700 4371 c-101 -33 -177 -98 -221 -190 -34 -68 -32 -186 3 -261 51
-110 151 -193 252 -206 92 -13 220 53 271 140 14 24 33 77 41 117 43 205 -77
389 -263 404 -32 2 -69 1 -83 -4z m122 -188 c68 -62 71 -198 5 -262 -40 -40
-60 -45 -100 -26 -94 44 -108 227 -23 298 26 22 88 17 118 -10z"/>
<path d="M5359 4365 c-64 -21 -141 -92 -169 -157 -20 -46 -22 -65 -18 -149 4
-80 10 -107 35 -161 92 -197 259 -241 434 -112 118 86 159 266 95 409 -27 59
-93 128 -150 157 -53 27 -164 33 -227 13z m146 -161 c35 -23 55 -59 65 -118
12 -74 -2 -124 -44 -163 -60 -55 -124 -43 -157 30 -63 139 34 318 136 251z"/>
<path d="M3660 3676 c0 -2 8 -10 18 -17 15 -13 16 -12 3 4 -13 16 -21 21 -21
13z"/>
<path d="M4330 3267 c0 -6 120 -47 134 -46 6 0 -11 8 -39 18 -76 27 -95 33
-95 28z"/>
<path d="M4488 3213 c7 -3 16 -2 19 1 4 3 -2 6 -13 5 -11 0 -14 -3 -6 -6z"/>
<path d="M4568 3193 c6 -2 18 -2 25 0 6 3 1 5 -13 5 -14 0 -19 -2 -12 -5z"/>
<path d="M4668 3173 c7 -3 16 -2 19 1 4 3 -2 6 -13 5 -11 0 -14 -3 -6 -6z"/>
<path d="M4718 3163 c7 -3 16 -2 19 1 4 3 -2 6 -13 5 -11 0 -14 -3 -6 -6z"/>
<path d="M4763 3153 c9 -2 23 -2 30 0 6 3 -1 5 -18 5 -16 0 -22 -2 -12 -5z"/>
<path d="M5473 3153 c9 -2 23 -2 30 0 6 3 -1 5 -18 5 -16 0 -22 -2 -12 -5z"/>
<path d="M4823 3143 c9 -2 23 -2 30 0 6 3 -1 5 -18 5 -16 0 -22 -2 -12 -5z"/>
<path d="M5393 3143 c9 -2 25 -2 35 0 9 3 1 5 -18 5 -19 0 -27 -2 -17 -5z"/>
<path d="M4885 3130 c19 -8 113 -14 104 -6 -2 2 -31 6 -64 9 -38 4 -53 3 -40
-3z"/>
<path d="M5318 3133 c12 -2 30 -2 40 0 9 3 -1 5 -23 4 -22 0 -30 -2 -17 -4z"/>
<path d="M5198 3123 c12 -2 32 -2 45 0 12 2 2 4 -23 4 -25 0 -35 -2 -22 -4z"/>
<path d="M5058 3113 c12 -2 32 -2 45 0 12 2 2 4 -23 4 -25 0 -35 -2 -22 -4z"/>
</g>
</svg>
